<?xml version="1.0" encoding="UTF-8"?>
<svg xmlns="http://www.w3.org/2000/svg" viewBox="0 0 900 720" width="900" height="720">
  <defs>
    <style>
      @import url('https://fonts.googleapis.com/css2?family=Bebas+Neue&amp;family=Space+Mono:wght@400;700&amp;display=swap');
    </style>
  </defs>

  <!-- Background -->
  <rect width="900" height="720" fill="#1a1a1a"/>

  <!-- Header area -->
  <rect x="0" y="0" width="900" height="100" fill="#1a1a1a"/>

  <!-- Accent top bar -->
  <rect x="0" y="0" width="900" height="4" fill="#4a9"/>

  <!-- Event subtitle -->
  <text x="48" y="42" font-family="'Space Mono', monospace" font-size="11" fill="#4a9" letter-spacing="3" font-weight="700">SCHEDULE OF ACTIVITIES &amp; WORKSHOPS</text>

  <!-- Main title -->
  <text x="48" y="82" font-family="'Bebas Neue', 'Arial Black', sans-serif" font-size="44" fill="#c9c9c9" letter-spacing="2">Inauguration / Porte Ouverte</text>

  <!-- Table background -->
  <rect x="48" y="108" width="804" height="578" rx="8" fill="#222"/>

  <!-- Header row -->
  <rect x="48" y="108" width="804" height="40" rx="8" fill="#222"/>
  <rect x="48" y="128" width="804" height="20" fill="#222"/>

  <!-- Header text -->
  <text x="68" y="133" font-family="'Space Mono', monospace" font-size="10" fill="#4a9" letter-spacing="2" font-weight="700">TIME</text>
  <text x="220" y="133" font-family="'Space Mono', monospace" font-size="10" fill="#4a9" letter-spacing="2" font-weight="700">WORKSHOP / SESSION</text>
  <text x="760" y="133" font-family="'Space Mono', monospace" font-size="10" fill="#4a9" letter-spacing="2" font-weight="700">DURATION</text>

  <!-- Header bottom border -->
  <line x1="48" y1="148" x2="852" y2="148" stroke="#333" stroke-width="1"/>

  <!-- Row data: alternating fills -->
  <!-- Row 1 -->
  <rect x="48" y="148" width="804" height="46" fill="#222"/>
  <text x="68" y="177" font-family="'Space Mono', monospace" font-size="12" fill="#4a9" font-weight="700">10h00</text>
  <text x="220" y="177" font-family="'Space Mono', monospace" font-size="14" fill="#c9c9c9" font-weight="700">Soldering 01</text>
  <text x="760" y="177" font-family="'Space Mono', monospace" font-size="12" fill="#777">1h30</text>
  <line x1="48" y1="194" x2="852" y2="194" stroke="#2a2a2a" stroke-width="1"/>

  <!-- Row 2 -->
  <rect x="48" y="194" width="804" height="46" fill="#1e1e1e"/>
  <text x="68" y="223" font-family="'Space Mono', monospace" font-size="12" fill="#4a9" font-weight="700">15h00</text>
  <text x="220" y="223" font-family="'Space Mono', monospace" font-size="14" fill="#c9c9c9" font-weight="700">Soldering 02</text>
  <text x="760" y="223" font-family="'Space Mono', monospace" font-size="12" fill="#777">1h30</text>
  <line x1="48" y1="240" x2="852" y2="240" stroke="#2a2a2a" stroke-width="1"/>

  <!-- Row 3 -->
  <rect x="48" y="240" width="804" height="46" fill="#222"/>
  <text x="68" y="269" font-family="'Space Mono', monospace" font-size="12" fill="#4a9" font-weight="700">13h00</text>
  <text x="220" y="269" font-family="'Space Mono', monospace" font-size="14" fill="#c9c9c9" font-weight="700">DJing / Music production</text>
  <text x="760" y="269" font-family="'Space Mono', monospace" font-size="12" fill="#777">2h00</text>
  <line x1="48" y1="286" x2="852" y2="286" stroke="#2a2a2a" stroke-width="1"/>

  <!-- Row 4 -->
  <rect x="48" y="286" width="804" height="46" fill="#1e1e1e"/>
  <text x="68" y="315" font-family="'Space Mono', monospace" font-size="12" fill="#555" font-style="italic">tba</text>
  <text x="220" y="315" font-family="'Space Mono', monospace" font-size="14" fill="#c9c9c9" font-weight="700">3D Printing</text>
  <text x="760" y="315" font-family="'Space Mono', monospace" font-size="12" fill="#555" font-style="italic">tba</text>
  <line x1="48" y1="332" x2="852" y2="332" stroke="#2a2a2a" stroke-width="1"/>

  <!-- Row 5 -->
  <rect x="48" y="332" width="804" height="46" fill="#222"/>
  <text x="68" y="361" font-family="'Space Mono', monospace" font-size="12" fill="#555" font-style="italic">tba</text>
  <text x="220" y="361" font-family="'Space Mono', monospace" font-size="14" fill="#c9c9c9" font-weight="700">Theremin</text>
  <text x="760" y="361" font-family="'Space Mono', monospace" font-size="12" fill="#555" font-style="italic">tba</text>
  <line x1="48" y1="378" x2="852" y2="378" stroke="#2a2a2a" stroke-width="1"/>

  <!-- Row 6 -->
  <rect x="48" y="378" width="804" height="46" fill="#1e1e1e"/>
  <text x="68" y="407" font-family="'Space Mono', monospace" font-size="11" fill="#777">Repeating</text>
  <text x="220" y="407" font-family="'Space Mono', monospace" font-size="14" fill="#c9c9c9" font-weight="700">Marble Adder</text>
  <text x="760" y="407" font-family="'Space Mono', monospace" font-size="12" fill="#777">45min</text>
  <line x1="48" y1="424" x2="852" y2="424" stroke="#2a2a2a" stroke-width="1"/>

  <!-- Row 7 -->
  <rect x="48" y="424" width="804" height="46" fill="#222"/>
  <text x="68" y="453" font-family="'Space Mono', monospace" font-size="11" fill="#777">Afternoon</text>
  <text x="220" y="453" font-family="'Space Mono', monospace" font-size="14" fill="#c9c9c9" font-weight="700">mBot Coding</text>
  <text x="760" y="453" font-family="'Space Mono', monospace" font-size="12" fill="#555" font-style="italic">tba</text>
  <line x1="48" y1="470" x2="852" y2="470" stroke="#2a2a2a" stroke-width="1"/>

  <!-- Row 8 -->
  <rect x="48" y="470" width="804" height="46" fill="#1e1e1e"/>
  <text x="68" y="499" font-family="'Space Mono', monospace" font-size="12" fill="#555" font-style="italic">tba</text>
  <text x="220" y="499" font-family="'Space Mono', monospace" font-size="14" fill="#c9c9c9" font-weight="700">Makey Makey</text>
  <text x="760" y="499" font-family="'Space Mono', monospace" font-size="12" fill="#777">2h00</text>
  <line x1="48" y1="516" x2="852" y2="516" stroke="#2a2a2a" stroke-width="1"/>

  <!-- Row 9 -->
  <rect x="48" y="516" width="804" height="46" fill="#222"/>
  <text x="68" y="545" font-family="'Space Mono', monospace" font-size="12" fill="#4a9" font-weight="700">13h00</text>
  <text x="220" y="545" font-family="'Space Mono', monospace" font-size="14" fill="#c9c9c9" font-weight="700">3D Jewlery</text>
  <text x="760" y="545" font-family="'Space Mono', monospace" font-size="12" fill="#777">2h00</text>
  <line x1="48" y1="562" x2="852" y2="562" stroke="#2a2a2a" stroke-width="1"/>

  <!-- Row 10 -->
  <rect x="48" y="562" width="804" height="46" fill="#1e1e1e"/>
  <text x="68" y="591" font-family="'Space Mono', monospace" font-size="12" fill="#555" font-style="italic">tba</text>
  <text x="220" y="591" font-family="'Space Mono', monospace" font-size="14" fill="#c9c9c9" font-weight="700">Misc MakerBuzz Activities</text>
  <text x="760" y="591" font-family="'Space Mono', monospace" font-size="12" fill="#555" font-style="italic">tba</text>
  <line x1="48" y1="608" x2="852" y2="608" stroke="#2a2a2a" stroke-width="1"/>

  <!-- Row 11 -->
  <rect x="48" y="608" width="804" height="78" rx="8" fill="#222"/>
  <rect x="48" y="608" width="804" height="20" fill="#222"/>
  <text x="68" y="649" font-family="'Space Mono', monospace" font-size="12" fill="#555" font-style="italic">tba</text>
  <text x="220" y="649" font-family="'Space Mono', monospace" font-size="14" fill="#c9c9c9" font-weight="700">Battle Robots</text>
  <text x="760" y="649" font-family="'Space Mono', monospace" font-size="12" fill="#555" font-style="italic">tba</text>

  <!-- Bottom accent bar -->
  <rect x="0" y="716" width="900" height="4" fill="#4a9"/>

  <!-- Column dividers -->
  <line x1="200" y1="148" x2="200" y2="686" stroke="#2a2a2a" stroke-width="1"/>
  <line x1="740" y1="148" x2="740" y2="686" stroke="#2a2a2a" stroke-width="1"/>

</svg>
